<svg width="87" height="31" viewBox="0 0 87 31" fill="none" xmlns="http://www.w3.org/2000/svg">
<path d="M10.0199 30.7727C8.25568 30.7727 6.7429 30.5298 5.48153 30.044C4.22869 29.5668 3.23153 28.9148 2.49006 28.0881C1.74858 27.2614 1.26705 26.3324 1.04545 25.3011L6.08239 24.6236C6.2358 25.0156 6.47869 25.3821 6.81108 25.723C7.14347 26.0639 7.58239 26.3366 8.12784 26.5412C8.68182 26.7543 9.35511 26.8608 10.1477 26.8608C11.3324 26.8608 12.3082 26.571 13.0753 25.9915C13.8509 25.4205 14.2386 24.4616 14.2386 23.1151V19.5227H14.0085C13.7699 20.0682 13.4119 20.5838 12.9347 21.0696C12.4574 21.5554 11.8438 21.9517 11.0938 22.2585C10.3438 22.5653 9.44886 22.7188 8.40909 22.7188C6.93466 22.7188 5.59233 22.3778 4.3821 21.696C3.1804 21.0057 2.22159 19.9531 1.50568 18.5384C0.798296 17.1151 0.444602 15.3168 0.444602 13.1435C0.444602 10.919 0.806818 9.06108 1.53125 7.5696C2.25568 6.07812 3.21875 4.96165 4.42045 4.22017C5.63068 3.47869 6.95597 3.10795 8.39631 3.10795C9.49574 3.10795 10.4162 3.29545 11.1577 3.67045C11.8991 4.03693 12.4957 4.49716 12.9474 5.05114C13.4077 5.59659 13.7614 6.13352 14.0085 6.66193H14.2131V3.36364H19.6207V23.1918C19.6207 24.8622 19.2116 26.2599 18.3935 27.3849C17.5753 28.5099 16.4418 29.3537 14.9929 29.9162C13.5526 30.4872 11.8949 30.7727 10.0199 30.7727ZM10.1349 18.6278C11.0128 18.6278 11.7543 18.4105 12.3594 17.9759C12.973 17.5327 13.4418 16.902 13.7656 16.0838C14.098 15.2571 14.2642 14.2685 14.2642 13.1179C14.2642 11.9673 14.1023 10.9702 13.7784 10.1264C13.4545 9.27415 12.9858 8.61364 12.3722 8.14489C11.7585 7.67614 11.0128 7.44176 10.1349 7.44176C9.24006 7.44176 8.4858 7.68466 7.87216 8.17045C7.25852 8.64773 6.79403 9.3125 6.47869 10.1648C6.16335 11.017 6.00568 12.0014 6.00568 13.1179C6.00568 14.2514 6.16335 15.2315 6.47869 16.0582C6.80256 16.8764 7.26705 17.5114 7.87216 17.9631C8.4858 18.4062 9.24006 18.6278 10.1349 18.6278ZM29.554 23.3707C28.3011 23.3707 27.1847 23.1534 26.2045 22.7188C25.2244 22.2756 24.4489 21.6236 23.8778 20.7628C23.3153 19.8935 23.0341 18.8111 23.0341 17.5156C23.0341 16.4247 23.2344 15.5085 23.6349 14.767C24.0355 14.0256 24.581 13.429 25.2713 12.9773C25.9616 12.5256 26.7457 12.1847 27.6236 11.9545C28.5099 11.7244 29.4389 11.5625 30.4105 11.4688C31.5526 11.3494 32.473 11.2386 33.1719 11.1364C33.8707 11.0256 34.3778 10.8636 34.6932 10.6506C35.0085 10.4375 35.1662 10.1222 35.1662 9.70455V9.62784C35.1662 8.81818 34.9105 8.19176 34.3991 7.74858C33.8963 7.3054 33.1804 7.08381 32.2514 7.08381C31.2713 7.08381 30.4915 7.30114 29.9119 7.7358C29.3324 8.16193 28.9489 8.69886 28.7614 9.34659L23.7244 8.9375C23.9801 7.74432 24.483 6.71307 25.233 5.84375C25.983 4.96591 26.9503 4.29261 28.1349 3.82386C29.3281 3.34659 30.7088 3.10795 32.277 3.10795C33.3679 3.10795 34.4119 3.2358 35.4091 3.49148C36.4148 3.74716 37.3054 4.14347 38.081 4.6804C38.8651 5.21733 39.483 5.90767 39.9347 6.75142C40.3864 7.58665 40.6122 8.58807 40.6122 9.75568V23H35.4474V20.277H35.294C34.9787 20.8906 34.5568 21.4318 34.0284 21.9006C33.5 22.3608 32.8651 22.723 32.1236 22.9872C31.3821 23.2429 30.5256 23.3707 29.554 23.3707ZM31.1136 19.6122C31.9148 19.6122 32.6222 19.4545 33.2358 19.1392C33.8494 18.8153 34.331 18.3807 34.6804 17.8352C35.0298 17.2898 35.2045 16.6719 35.2045 15.9815V13.8977C35.0341 14.0085 34.7997 14.1108 34.5014 14.2045C34.2116 14.2898 33.8835 14.3707 33.517 14.4474C33.1506 14.5156 32.7841 14.5795 32.4176 14.6392C32.0511 14.6903 31.7188 14.7372 31.4205 14.7798C30.7813 14.8736 30.223 15.0227 29.7457 15.2273C29.2685 15.4318 28.8977 15.7088 28.6335 16.0582C28.3693 16.3991 28.2372 16.8253 28.2372 17.3366C28.2372 18.0781 28.5057 18.6449 29.0426 19.0369C29.5881 19.4205 30.2784 19.6122 31.1136 19.6122ZM50.2834 -3.18182V23H44.8374V-3.18182H50.2834ZM63.5948 23.3835C61.5749 23.3835 59.8363 22.9744 58.3789 22.1562C56.93 21.3295 55.8136 20.1619 55.0295 18.6534C54.2454 17.1364 53.8533 15.3423 53.8533 13.2713C53.8533 11.2514 54.2454 9.47869 55.0295 7.95312C55.8136 6.42756 56.9173 5.23864 58.3406 4.38636C59.7724 3.53409 61.4513 3.10795 63.3775 3.10795C64.6729 3.10795 65.8789 3.31676 66.9954 3.73438C68.1204 4.14347 69.1005 4.76136 69.9357 5.58807C70.7795 6.41477 71.4357 7.45455 71.9045 8.70739C72.3732 9.9517 72.6076 11.4091 72.6076 13.0795V14.5753H56.0266V11.2003H67.4812C67.4812 10.4162 67.3107 9.72159 66.9698 9.11648C66.6289 8.51136 66.1559 8.03835 65.5508 7.69744C64.9542 7.34801 64.2596 7.1733 63.467 7.1733C62.6403 7.1733 61.9073 7.36506 61.2681 7.74858C60.6374 8.12358 60.1431 8.63068 59.7852 9.26989C59.4272 9.90057 59.244 10.6037 59.2354 11.3793V14.5881C59.2354 15.5597 59.4144 16.3991 59.7724 17.1065C60.1388 17.8139 60.6545 18.3594 61.3192 18.7429C61.984 19.1264 62.7724 19.3182 63.6843 19.3182C64.2894 19.3182 64.8434 19.233 65.3462 19.0625C65.8491 18.892 66.2795 18.6364 66.6374 18.2955C66.9954 17.9545 67.2681 17.5369 67.4556 17.0426L72.4925 17.375C72.2369 18.5852 71.7127 19.642 70.9201 20.5455C70.136 21.4403 69.1218 22.1392 67.8775 22.642C66.6417 23.1364 65.2141 23.3835 63.5948 23.3835ZM86.6062 3.36364V7.45455H74.7809V3.36364H86.6062ZM77.4656 -1.34091H82.9116V16.9659C82.9116 17.4687 82.9883 17.8608 83.1417 18.142C83.2951 18.4148 83.5082 18.6065 83.7809 18.7173C84.0621 18.8281 84.386 18.8835 84.7525 18.8835C85.0082 18.8835 85.2638 18.8622 85.5195 18.8196C85.7752 18.7685 85.9712 18.7301 86.1076 18.7045L86.9641 22.7571C86.6914 22.8423 86.3079 22.9403 85.8136 23.0511C85.3192 23.1705 84.7184 23.2429 84.011 23.2685C82.6985 23.3196 81.5479 23.1449 80.5593 22.7443C79.5792 22.3437 78.8164 21.7216 78.271 20.8778C77.7255 20.0341 77.457 18.9687 77.4656 17.6818V-1.34091Z" fill="#191826"/>
</svg>
